<?xml version="1.0" standalone="no"?>
<!DOCTYPE svg PUBLIC "-//W3C//DTD SVG 1.1//EN" "http://www.w3.org/Graphics/SVG/1.1/DTD/svg11.dtd">

<svg width="200" height="133.33" 
  xmlns="http://www.w3.org/2000/svg"
  xmlns:xlink="http://www.w3.org/1999/xlink">


<rect fill="white" stroke="" x="0" y="0.0" width="200" height="133.33" rx="0"/>
<rect fill="white" stroke="" x="0" y="0.0" width="200" height="133.33" rx="0"/>
<rect fill="#87CEEB" stroke="" x="0" y="22.666100000000004" width="200" height="22.666100000000004" rx="0"/>
<rect fill="#87CEEB" stroke="" x="0" y="87.9978" width="200" height="22.666100000000007" rx="0"/>
<polygon fill="red" transform="translate(35.0480947161671 66.665)" points="0.0 -16.66625 2.777708333333333 -4.8111319619408 14.433395885822401 -8.333125000000003 5.555416666666667 -3.401711619381596e-16 14.433395885822405 8.333124999999997 2.777708333333333 4.8111319619408 2.0410269716289576e-15 16.66625 -2.777708333333334 4.8111319619408 -14.433395885822398 8.333125000000008 -5.555416666666667 1.0205134858144786e-15 -14.433395885822401 -8.333125 -2.7777083333333357 -4.811131961940799"/>
<polygon fill="red" transform="translate(78.34936490538904 66.665)" points="0.0 -16.66625 2.777708333333333 -4.8111319619408 14.433395885822401 -8.333125000000003 5.555416666666667 -3.401711619381596e-16 14.433395885822405 8.333124999999997 2.777708333333333 4.8111319619408 2.0410269716289576e-15 16.66625 -2.777708333333334 4.8111319619408 -14.433395885822398 8.333125000000008 -5.555416666666667 1.0205134858144786e-15 -14.433395885822401 -8.333125 -2.7777083333333357 -4.811131961940799"/>
<polygon fill="red" transform="translate(121.65063509461098 66.665)" points="0.0 -16.66625 2.777708333333333 -4.8111319619408 14.433395885822401 -8.333125000000003 5.555416666666667 -3.401711619381596e-16 14.433395885822405 8.333124999999997 2.777708333333333 4.8111319619408 2.0410269716289576e-15 16.66625 -2.777708333333334 4.8111319619408 -14.433395885822398 8.333125000000008 -5.555416666666667 1.0205134858144786e-15 -14.433395885822401 -8.333125 -2.7777083333333357 -4.811131961940799"/>
<polygon fill="red" transform="translate(164.9519052838329 66.665)" points="0.0 -16.66625 2.777708333333333 -4.8111319619408 14.433395885822401 -8.333125000000003 5.555416666666667 -3.401711619381596e-16 14.433395885822405 8.333124999999997 2.777708333333333 4.8111319619408 2.0410269716289576e-15 16.66625 -2.777708333333334 4.8111319619408 -14.433395885822398 8.333125000000008 -5.555416666666667 1.0205134858144786e-15 -14.433395885822401 -8.333125 -2.7777083333333357 -4.811131961940799"/>
<rect x="0" y="0" width="200" height="133.33" rx="0" style="stroke:black; fill:; fill-opacity:0"/>

</svg>